# xmcd
# 
# Track frame offsets:
#     150
#     16377
#     38271
#     53802
#     73287
#     91730
#     106043
#     121119
#     139502
#     151804
#     164766
#     181619
#     204027
#     219709
#     233130
#     245330
#     260348
#     273991
#     288730
#     302176
#     323337
# 
# Disc length: 4711
# 
# Revision: 2
# Processed by: cddbd v1.5.2PL0 Copyright (c) Steve Scherf et al.
# Submitted via: fre:ac v1.0.31
# 
DISCID=13126515
DTITLE=Various Artist - Heimatsound Vol. 2 [CD2]
DYEAR=2015
DGENRE=Alternative
TTITLE0=Wanda - Bologna
TTITLE1=Bananafishbones - Honestly
TTITLE2=Fuadadeimuada - Gemma weg
TTITLE3=Texta - (So schö kaust gor net) Schaun!
TTITLE4=Dicht and Ergreifend - Zipfeschwinga
TTITLE5=Pullup Orchestra - Duschtig Obig Sunnä König
TTITLE6=Anna F. - DNA
TTITLE7=Los Dos y Compañeros - Wissn solln
TTITLE8=Spacemann Spiff - Elefanten
TTITLE9=Rosalie und Wanda - Lulu
TTITLE10=Konstantin Wecker - So a saudummer Tag
TTITLE11=Nachtcafé - Il cono d'ombra
TTITLE12=Züri West - I schänke dir mis Härz
TTITLE13=Lisa Wahlandt, Andrea Hermenau and Christiane Öttl - Mogst du mi
TTITLE14=Timothy - Lovebirds
TTITLE15=Steff la Cheffe - Ha ke Ahnig
TTITLE16=Bligg - Rosalie
TTITLE17=Michael Fitz - Für was?
TTITLE18=Andreas Kümmert - Home Is In My Hands
TTITLE19=Falco - It's All Over Now, Baby Blue
TTITLE20=Paul Istance and The Magic Mumble Jumble - Home
EXTD=
EXTT0=
EXTT1=
EXTT2=
EXTT3=
EXTT4=
EXTT5=
EXTT6=
EXTT7=
EXTT8=
EXTT9=
EXTT10=
EXTT11=
EXTT12=
EXTT13=
EXTT14=
EXTT15=
EXTT16=
EXTT17=
EXTT18=
EXTT19=
EXTT20=
PLAYORDER=
